<svg width="154" height="34" viewBox="0 0 154 34" fill="none" xmlns="http://www.w3.org/2000/svg">
<g clip-path="url(#clip0_269_42)">
<path d="M150.013 12.7008C149.946 16.6785 144.047 16.6771 143.981 12.7008C144.049 8.723 149.947 8.72445 150.013 12.7008Z" fill="#F7C53D"/>
<path d="M55.4366 32.6345V10.0494H46.5215V3.52019H72.519V10.0494H63.6458V32.6345H55.4366Z" fill="#0E4387"/>
<path d="M72.2705 32.6345V10.0914H79.7753V16.6626L78.6566 14.7917C80.0914 11.1369 83.4057 9.72939 87.3219 9.7178V16.8306C83.488 16.1572 79.9254 17.7747 80.1491 22.2796V32.6359H72.2705V32.6345Z" fill="#0E4387"/>
<path d="M98.8062 33.0095C94.0225 33.0371 89.7006 31.2183 87.2597 27.3318C83.9006 22.0059 85.8335 13.9635 91.6335 11.1934C100.564 6.7218 111.596 12.5082 109.876 23.3583H92.0896V19.1996H105.689L102.704 20.3638C103.157 15.3246 96.1877 13.3698 93.9142 17.7226C93.064 19.4877 93.0626 22.7675 94.0181 24.482C96.0708 27.9226 101.542 27.5953 104.238 25.0221L108.384 29.3474C105.903 32.0394 102.678 32.998 98.8062 33.0081V33.0095Z" fill="#0E4387"/>
<path d="M108.134 32.6345V27.9761L120.739 13.419L122.065 15.956H108.424V10.0914H128.45V14.7077L115.804 29.3069L114.477 26.7279H128.864V32.6345H108.133H108.134Z" fill="#0E4387"/>
<path d="M149.515 15.3637C146.47 18.4162 141.488 14.3052 143.904 10.7141C138.309 8.48697 130.559 9.91474 127.353 15.2899C123.949 20.6621 125.985 28.7494 131.851 31.5108C142.884 36.9641 155.769 27.297 149.514 15.3637H149.515ZM142.507 24.2532C141.404 26.6758 138.208 27.3911 136.019 26.1038C133.579 24.734 133.08 20.7692 134.318 18.4292C135.471 16.0588 138.657 15.3348 140.827 16.6206C143.288 17.989 143.673 21.8944 142.506 24.2532H142.507Z" fill="#0E4387"/>
<path d="M3.51655 27.2014C-8.83983 11.0109 14.2216 -9.33407 28.6638 5.24625C43.1955 19.7339 22.9129 42.8692 6.77597 30.4726L1.42491 32.5693L3.5151 27.2014H3.51655Z" fill="#0E4387"/>
<path d="M40.9219 26.9582C53.2769 10.7676 30.2155 -9.57734 15.7732 5.00298C1.2415 19.4906 21.5241 42.626 37.661 30.2293L43.0121 32.3261L40.9219 26.9582Z" fill="#F7C53D"/>
<path d="M152.264 29.0549C154.579 29.0101 154.579 32.6779 152.264 32.6359C149.948 32.6779 149.948 29.0086 152.264 29.0549ZM152.267 29.4054C150.408 29.3706 150.408 32.3188 152.267 32.2884C154.127 32.3188 154.129 29.3706 152.267 29.4054ZM151.457 31.8048V29.9035C151.915 29.9238 152.476 29.8456 152.745 29.9846C153.178 30.2423 153.004 30.9461 152.482 30.9721C152.771 31.0735 152.922 31.5369 153.107 31.8048H152.632C152.433 31.4442 152.293 30.9446 151.842 31.0243V31.8048H151.458H151.457ZM151.842 30.7245C152.169 30.7028 152.558 30.8114 152.586 30.4624C152.557 30.1207 152.163 30.2264 151.842 30.2047V30.7231V30.7245Z" fill="#0E4387"/>
</g>
<defs>
<clipPath id="clip0_269_42">
<rect width="154" height="34" fill="white"/>
</clipPath>
</defs>
</svg>
