<svg width="70" height="20" viewBox="0 0 70 20" fill="none" xmlns="http://www.w3.org/2000/svg">
<g clip-path="url(#clip0_589_179)">
<path d="M68.2161 6.11996C68.1711 8.74945 64.2599 8.74849 64.2158 6.11996C64.2608 3.49046 68.172 3.49142 68.2161 6.11996Z" fill="#F7C53D"/>
<path d="M5.49971 19.2972V4.36739H-0.412109V0.0512695H16.8275V4.36739H10.9434V19.2972H5.49971Z" fill="white"/>
<path d="M16.6628 19.2972V4.39516H21.6395V8.73904L20.8976 7.50231C21.8491 5.08627 24.0469 4.15585 26.6438 4.14819V8.85008C24.1014 8.40497 21.739 9.47419 21.8874 12.4521V19.2982H16.6628V19.2972Z" fill="white"/>
<path d="M34.2595 19.5452C31.0872 19.5634 28.2213 18.3611 26.6026 15.7919C24.3752 12.2713 25.6569 6.95483 29.503 5.12366C35.4254 2.16775 42.7405 5.99282 41.6004 13.1653H29.8055V10.4162H38.8235L36.844 11.1858C37.1445 7.85462 32.5231 6.56237 31.0154 9.43979C30.4516 10.6066 30.4507 12.7748 31.0843 13.9081C32.4455 16.1825 36.0734 15.9661 37.8615 14.2652L40.6106 17.1244C38.9652 18.9039 36.8267 19.5375 34.2595 19.5442V19.5452Z" fill="white"/>
<path d="M40.445 19.2973V16.2179L48.8035 6.59496L49.6832 8.27202H40.6375V4.39526H53.917V7.44689L45.5308 17.0976L44.6511 15.3928H54.1917V19.2973H40.4441H40.445Z" fill="white"/>
<path d="M67.8858 7.8805C65.866 9.89833 62.5627 7.18077 64.1651 4.80685C60.4548 3.33464 55.3155 4.27846 53.1895 7.83168C50.9324 11.383 52.2821 16.7291 56.1722 18.5545C63.4883 22.1594 72.0325 15.769 67.8848 7.8805H67.8858ZM63.2385 13.7569C62.5071 15.3583 60.3878 15.8312 58.9357 14.9802C57.318 14.0747 56.9868 11.4538 57.8081 9.90694C58.5729 8.33997 60.6855 7.86135 62.1243 8.71137C63.7563 9.61595 64.0119 12.1976 63.2375 13.7569H63.2385Z" fill="white"/>
</g>
<defs>
<clipPath id="clip0_589_179">
<rect width="70" height="20" fill="white"/>
</clipPath>
</defs>
</svg>
